<?xml version="1.0" encoding="utf-8"?>
<!-- Generator: Adobe Illustrator 22.1.0, SVG Export Plug-In . SVG Version: 6.00 Build 0)  -->
<svg version="1.1" id="Layer_1" xmlns="http://www.w3.org/2000/svg" xmlns:xlink="http://www.w3.org/1999/xlink" x="0px" y="0px"
	 viewBox="0 0 512 512" style="enable-background:new 0 0 512 512;" xml:space="preserve">
<g>
	<path d="M182.4,230.4c-12.8-2.5-24.8,7.8-24.8,20.9v44.3c0,9,6.2,16.2,14.7,19.3c16,6,27.5,21.4,27.5,39.6
		c0,23.3-18.9,42.2-42.2,42.2s-42.2-18.9-42.2-42.2v-218c0-11.7-9.4-21.1-21.1-21.1H52.1c-11.7,0-21.1,9.4-21.1,21.1v218
		c0,78.7,72.2,140.8,153.8,123.7c47.8-10,86.4-48.7,96.4-96.4C296.6,308.9,248.7,243.5,182.4,230.4L182.4,230.4z M214.7,31
		c-8.1-0.4-14.9,6-14.9,14.1v27.8c0,7.5,5.8,13.6,13.2,14c113.7,6.2,205.1,98.4,211.7,212.3c0.4,7.4,6.6,13.2,14,13.2h28.2
		c8.1,0,14.5-6.9,14.1-14.9C473.5,153.9,358.2,38.6,214.7,31z M215,115.4c-8.2-0.6-15.2,5.9-15.2,14.2v28.2c0,7.4,5.7,13.4,13,14
		c67.5,5.5,121.3,59.9,127.4,127.6c0.7,7.3,6.7,12.9,14,12.9h28.3c8.2,0,14.8-7,14.2-15.2C389.2,200.3,311.8,122.9,215,115.4
		L215,115.4z"/>
</g>
</svg>
